<?xml version="1.0" standalone="no"?>
<!DOCTYPE svg PUBLIC "-//W3C//DTD SVG 20010904//EN"
 "http://www.w3.org/TR/2001/REC-SVG-20010904/DTD/svg10.dtd">
<svg version="1.0" xmlns="http://www.w3.org/2000/svg"
 width="300.000000pt" height="300.000000pt" viewBox="0 0 300.000000 300.000000"
 preserveAspectRatio="xMidYMid meet">
<metadata>
Created by potrace 1.10, written by Peter Selinger 2001-2011
</metadata>
<g transform="translate(0.000000,300.000000) scale(0.050000,-0.050000)"
fill="#248432" stroke="none">
<path d="M3633 5680 c-1243 -226 -1880 -1565 -1267 -2660 168 -300 551 -633
876 -761 59 -23 111 -45 114 -48 3 -3 -26 -67 -65 -143 -163 -322 -114 -414
223 -425 1228 -37 2454 1521 2131 2708 -242 894 -1141 1488 -2012 1329z m618
-271 c1013 -224 1485 -1326 982 -2298 -339 -657 -1000 -1166 -1639 -1261 -138
-21 -140 15 -8 225 198 314 201 294 -39 344 -1135 234 -1558 1667 -751 2543
369 400 912 567 1455 447z"/>
<path d="M3250 4022 c-130 -56 -165 -236 -65 -337 126 -125 355 -32 355 145 0
135 -167 245 -290 192z"/>
<path d="M3825 4019 c-25 -9 -63 -47 -85 -83 -132 -217 165 -428 329 -234 139
166 -40 399 -244 317z"/>
<path d="M4400 4015 c-27 -14 -66 -59 -87 -100 -104 -213 172 -393 332 -215
149 165 -45 414 -245 315z"/>
<path d="M666 3540 c-264 -129 -342 -248 -360 -552 -78 -1274 1257 -2666 2564
-2676 403 -3 537 68 673 359 142 303 125 340 -305 625 -445 295 -478 300 -620
89 -187 -278 -288 -308 -571 -166 -464 233 -976 871 -917 1142 13 60 167 216
262 265 203 105 191 179 -96 616 -127 194 -247 358 -265 365 -86 33 -205 11
-365 -67z"/>
</g>
</svg>
