<?xml version="1.0" standalone="no"?>
<!DOCTYPE svg PUBLIC "-//W3C//DTD SVG 20010904//EN"
 "http://www.w3.org/TR/2001/REC-SVG-20010904/DTD/svg10.dtd">
<svg version="1.0" xmlns="http://www.w3.org/2000/svg"
 width="300.000000pt" height="326.000000pt" viewBox="0 0 300.000000 326.000000"
 preserveAspectRatio="xMidYMid meet">
<metadata>
Created by potrace 1.10, written by Peter Selinger 2001-2011
</metadata>
<g transform="translate(0.000000,326.000000) scale(0.050000,-0.050000)"
fill="#248432" stroke="none">
<path d="M228 6482 c-244 -111 -230 95 -224 -3272 l6 -2920 50 -90 c33 -59 81
-107 140 -140 l90 -50 2110 -5 c2336 -6 2276 -9 2401 116 117 117 120 143 114
1059 l-5 824 -205 -315 -205 -315 0 -477 0 -477 -2035 5 -2035 5 -5 2835 -5
2835 1539 0 1538 0 7 -462 6 -462 56 -48 c56 -48 60 -48 495 -48 l438 0 6
-475 5 -475 205 320 205 320 0 300 0 299 -575 576 -576 575 -1729 0 c-1646 -1
-1734 -3 -1812 -38z"/>
<path d="M989 5461 c-109 -44 -130 -178 -41 -254 l54 -47 634 0 c682 1 717 5
752 103 29 84 -1 156 -78 188 -77 33 -1244 41 -1321 10z"/>
<path d="M5050 4466 c-119 -183 -220 -352 -224 -375 -9 -45 615 -472 688 -470
44 1 492 680 476 722 -13 32 -660 457 -697 457 -14 0 -123 -150 -243 -334z"/>
<path d="M948 4653 c-65 -56 -73 -152 -18 -213 35 -39 59 -40 1180 -40 1121 0
1145 1 1180 40 55 61 47 157 -18 213 l-54 47 -1108 0 -1108 0 -54 -47z"/>
<path d="M944 3879 c-66 -61 -66 -168 -1 -224 38 -32 102 -35 706 -35 l664 0
44 46 c57 62 55 144 -6 205 l-49 49 -657 0 c-634 0 -659 -1 -701 -41z"/>
<path d="M4677 3885 c-17 -19 -342 -513 -722 -1097 l-693 -1061 -21 -395 c-28
-520 -68 -494 404 -264 l345 169 389 596 c960 1473 1042 1602 1031 1630 -6 16
-61 60 -122 96 -139 85 -80 150 -618 -679 -525 -809 -467 -741 -571 -672 -101
67 -147 -26 399 811 254 389 462 720 462 733 0 22 -210 168 -241 168 -7 0 -26
-16 -42 -35z"/>
<path d="M955 3115 c-81 -62 -72 -229 14 -262 19 -7 326 -13 684 -13 l649 0
49 49 c63 63 64 150 3 208 -56 52 -1332 69 -1399 18z"/>
<path d="M1448 2140 c-175 -70 -297 -419 -229 -655 14 -51 12 -65 -10 -65 -91
0 -209 -185 -179 -280 32 -102 289 15 290 133 1 30 4 31 19 8 21 -33 -65 -217
-173 -368 -44 -61 -64 -109 -56 -130 19 -47 125 78 219 259 41 76 83 133 94
126 43 -27 153 17 257 102 l110 91 130 -12 c196 -19 500 74 500 153 0 36 -59
42 -91 10 -59 -59 -244 -98 -401 -85 -139 12 -146 10 -228 -52 -156 -118 -261
-171 -260 -130 0 3 22 70 49 149 52 152 131 529 131 623 0 99 -84 159 -172
123z m88 -136 c8 -78 -43 -359 -97 -533 l-40 -128 -50 50 c-140 140 -91 508
86 647 66 53 93 43 101 -36z m-296 -713 c0 -45 -81 -131 -123 -131 -39 0 -14
99 36 139 68 53 87 52 87 -8z"/>
</g>
</svg>
