 <svg  version="1.0" xmlns="http://www.w3.org/2000/svg"  width="300.000000pt" height="300.000000pt" viewBox="0 0 300.000000 300.000000"  preserveAspectRatio="xMidYMid meet">  <g transform="translate(0.000000,300.000000) scale(0.050000,-0.050000)" fill="#c9142d" stroke="none"> <path d="M1986 5870 c-1234 -224 -2069 -1435 -1836 -2665 248 -1306 1549 -2120 2835 -1774 102 28 205 55 230 62 l45 12 0 -693 0 -692 1315 5 1315 5 0 1870 0 1870 -614 5 -614 6 -13 74 c-216 1279 -1415 2142 -2663 1915z m914 -228 c796 -216 1431 -905 1532 -1660 l13 -102 -127 0 -128 0 -45 185 c-415 1716 -2807 1879 -3462 235 -586 -1470 927 -2959 2386 -2348 206 87 191 92 191 -70 l0 -143 -94 -41 c-735 -315 -1658 -125 -2245 463 -1186 1185 -556 3184 1109 3517 167 33 696 12 870 -36z m-120 -445 c591 -150 1049 -634 1186 -1252 l10 -44 -363 -6 -363 -5 -5 -812 -5 -813 -115 -60 c-900 -472 -2010 4 -2294 983 -346 1195 742 2316 1949 2009z m2920 -3197 l0 -1680 -1120 0 -1120 0 0 1680 0 1680 1120 0 1120 0 0 -1680z"/> <path d="M1909 4512 c-37 -27 -39 -61 -45 -610 -5 -537 -8 -582 -40 -582 -58 0 -124 -59 -124 -110 0 -61 50 -110 111 -110 45 0 49 -8 49 -96 0 -117 42 -184 117 -184 81 0 103 35 103 164 l0 116 217 0 c228 0 283 21 283 107 0 86 -68 113 -290 113 l-210 0 0 98 0 98 315 7 c304 7 318 9 411 63 382 225 309 797 -118 925 -133 41 -724 41 -779 1z m765 -211 c109 -49 154 -134 153 -287 -2 -234 -108 -302 -476 -303 l-261 -1 -6 315 -5 315 255 0 c208 -1 272 -8 340 -39z"/> <path d="M3660 2970 l0 -490 920 0 921 0 -6 485 -5 485 -915 5 -915 5 0 -490z m1680 -10 l0 -320 -760 0 -760 0 0 320 0 320 760 0 760 0 0 -320z"/> <path d="M3800 1960 l0 -140 130 0 130 0 0 140 0 140 -130 0 -130 0 0 -140z"/> <path d="M4460 1959 l0 -141 125 6 125 6 6 135 6 135 -131 0 -131 0 0 -141z"/> <path d="M5104 1965 l6 -135 125 -6 125 -6 0 141 0 141 -131 0 -131 0 6 -135z"/> <path d="M3800 1440 l0 -140 130 0 130 0 0 140 0 140 -130 0 -130 0 0 -140z"/> <path d="M4460 1441 l0 -141 131 0 131 0 -6 135 -6 135 -125 6 -125 6 0 -141z"/> <path d="M5113 1567 c-7 -8 -13 -71 -13 -140 l0 -127 130 0 130 0 0 140 0 140 -117 0 c-64 0 -122 -6 -130 -13z"/> <path d="M3800 910 l0 -130 130 0 130 0 0 130 0 130 -130 0 -130 0 0 -130z"/> <path d="M4457 910 l-7 -130 135 0 135 0 0 130 0 130 -128 0 -129 0 -6 -130z"/> <path d="M5100 910 l0 -130 130 0 130 0 0 130 0 130 -130 0 -130 0 0 -130z"/> </g> </svg> 