<?xml version="1.0" standalone="no"?>
<!DOCTYPE svg PUBLIC "-//W3C//DTD SVG 20010904//EN"
 "http://www.w3.org/TR/2001/REC-SVG-20010904/DTD/svg10.dtd">
<svg version="1.0" xmlns="http://www.w3.org/2000/svg"
 width="300.000000pt" height="320.000000pt" viewBox="0 0 300.000000 320.000000"
 preserveAspectRatio="xMidYMid meet">
<metadata>
Created by potrace 1.10, written by Peter Selinger 2001-2011
</metadata>
<g transform="translate(0.000000,320.000000) scale(0.050000,-0.050000)"
fill="#c9142d" stroke="none">
<path d="M2290 6124 c-385 -152 -991 -387 -1346 -525 l-646 -249 8 -1210 c9
-1282 8 -1266 112 -1674 300 -1172 1145 -2038 2338 -2397 l240 -73 155 43
c1249 343 2127 1228 2440 2463 100 398 108 522 108 1728 l1 1120 -1325 515
c-729 283 -1338 519 -1355 524 -16 5 -345 -114 -730 -265z m1636 -976 c497
-194 910 -358 918 -365 34 -33 24 -1668 -12 -1873 -170 -971 -795 -1706 -1707
-2008 l-125 -42 -125 42 c-915 309 -1522 1027 -1706 2018 -38 201 -63 1585
-33 1778 l14 88 910 356 c501 196 922 357 936 357 15 1 433 -157 930 -351z"/>
<path d="M3782 4202 c-122 -131 -447 -456 -722 -722 l-499 -484 -291 278 -290
279 -220 -221 -219 -222 503 -490 c277 -269 511 -490 520 -490 27 0 1896 1850
1896 1876 0 30 -402 434 -432 434 -13 0 -124 -107 -246 -238z"/>
</g>
</svg>
